<?xml version="1.0" encoding="us-ascii" standalone="no"?><svg xmlns="http://www.w3.org/2000/svg" xmlns:xlink="http://www.w3.org/1999/xlink" contentStyleType="text/css" height="176.0417px" preserveAspectRatio="none" style="width:467px;height:176px;" version="1.1" viewBox="0 0 467 176" width="467.7083px" zoomAndPan="magnify"><defs/><g><!--class user--><g id="elem_user"><rect codeLine="21" fill="#FFFFFF" height="122.1029" id="user" rx="2.6042" ry="2.6042" style="stroke:#2688D4;stroke-width:1.0416666666666667;" width="163.8889" x="17.7083" y="29.6875"/><rect fill="#ADD8E6" height="34.1715" rx="2.6042" ry="2.6042" style="stroke:#ADD8E6;stroke-width:1.0416666666666667;" width="163.8889" x="17.7083" y="29.6875"/><rect fill="#ADD8E6" height="2.6042" style="stroke:#ADD8E6;stroke-width:1.0416666666666667;" width="163.8889" x="17.7083" y="61.2549"/><rect codeLine="21" fill="none" height="122.1029" id="user" rx="2.6042" ry="2.6042" style="stroke:#2688D4;stroke-width:1.0416666666666667;" width="163.8889" x="17.7083" y="29.6875"/><ellipse cx="76.7361" cy="46.7733" fill="#FFFFFF" rx="10.4167" ry="10.4167" style="stroke:#2D547A;stroke-width:1.0416666666666667;"/><path d="M77.2407,51.7212 L75.434,51.7212 L75.434,44.1854 L73.1228,44.1854 L73.1228,42.6066 L79.5519,42.6066 L79.5519,44.1854 L77.2407,44.1854 L77.2407,51.7212 Z " fill="#FFFFFF"/><text fill="#000000" font-family="Verdana" font-size="11.4583" lengthAdjust="spacing" textLength="27.0833" x="101.7361" y="50.7401">user</text><line style="stroke:#2688D4;stroke-width:1.0416666666666667;" x1="18.75" x2="180.5556" y1="63.859" y2="63.859"/><path d="M35.4601,76.0688 C34.1424,76.0688 33.0729,77.1382 33.0729,78.4559 C33.0729,78.6087 33.0729,78.7615 33.1016,78.9047 L30.2083,81.798 L30.2083,83.7077 L33.0729,83.7077 L33.0729,81.798 L34.9826,81.798 L34.9826,80.8431 L35.0113,80.8145 C35.1545,80.8431 35.3073,80.8431 35.4601,80.8431 C36.7778,80.8431 37.8472,79.7737 37.8472,78.4559 C37.8472,77.1382 36.7778,76.0688 35.4601,76.0688 M35.9375,77.0237 C36.4627,77.0237 36.8924,77.4533 36.8924,77.9785 C36.8924,78.5037 36.4627,78.9334 35.9375,78.9334 C35.4123,78.9334 34.9826,78.5037 34.9826,77.9785 C34.9826,77.4533 35.4123,77.0237 35.9375,77.0237 " fill="#000000" style="stroke:;stroke-width:0.0;stroke-dasharray:;"/><text fill="#000000" font-family="Verdana" font-size="11.4583" font-weight="bold" lengthAdjust="spacing" textLength="12.5" x="43.0556" y="83.8699">id</text><text fill="#000000" font-family="Verdana" font-size="11.4583" lengthAdjust="spacing" textLength="36.4583" x="55.5556" y="83.8699">: UUID</text><path d="M33.0729,99.8237 C31.4878,99.8237 30.2083,101.1032 30.2083,102.6883 C30.2083,104.2733 31.4878,105.5528 33.0729,105.5528 C34.658,105.5528 35.9375,104.2733 35.9375,102.6883 C35.9375,101.1032 34.658,99.8237 33.0729,99.8237 " fill="#008000" style="stroke:;stroke-width:0.0;stroke-dasharray:;"/><text fill="#000000" font-family="Verdana" font-size="11.4583" lengthAdjust="spacing" textLength="109.375" x="43.0556" y="107.6248">isActive: BOOLEAN</text><path d="M35.4601,123.5786 C34.1424,123.5786 33.0729,124.648 33.0729,125.9657 C33.0729,126.1185 33.0729,126.2713 33.1016,126.4145 L30.2083,129.3077 L30.2083,131.2174 L33.0729,131.2174 L33.0729,129.3077 L34.9826,129.3077 L34.9826,128.3529 L35.0113,128.3242 C35.1545,128.3529 35.3073,128.3529 35.4601,128.3529 C36.7778,128.3529 37.8472,127.2834 37.8472,125.9657 C37.8472,124.648 36.7778,123.5786 35.4601,123.5786 M35.9375,124.5334 C36.4627,124.5334 36.8924,124.9631 36.8924,125.4883 C36.8924,126.0135 36.4627,126.4431 35.9375,126.4431 C35.4123,126.4431 34.9826,126.0135 34.9826,125.4883 C34.9826,124.9631 35.4123,124.5334 35.9375,124.5334 " fill="#0000FF" style="stroke:;stroke-width:0.0;stroke-dasharray:;"/><text fill="#0000FF" font-family="Verdana" font-size="11.4583" font-weight="bold" lengthAdjust="spacing" textLength="36.4583" x="43.0556" y="131.3797">cityId</text><text fill="#000000" font-family="Verdana" font-size="11.4583" lengthAdjust="spacing" textLength="90.625" x="79.5139" y="131.3797">: INTEGER &#171;FK&#187;</text><line style="stroke:#2688D4;stroke-width:1.0416666666666667;" x1="18.75" x2="180.5556" y1="143.457" y2="143.457"/></g><!--class city--><g id="elem_city"><rect codeLine="27" fill="#FFFFFF" height="145.8577" id="city" rx="2.6042" ry="2.6042" style="stroke:#2688D4;stroke-width:1.0416666666666667;" width="211.8056" x="243.75" y="17.7083"/><rect fill="#ADD8E6" height="34.1715" rx="2.6042" ry="2.6042" style="stroke:#ADD8E6;stroke-width:1.0416666666666667;" width="211.8056" x="243.75" y="17.7083"/><rect fill="#ADD8E6" height="2.6042" style="stroke:#ADD8E6;stroke-width:1.0416666666666667;" width="211.8056" x="243.75" y="49.2757"/><rect codeLine="27" fill="none" height="145.8577" id="city" rx="2.6042" ry="2.6042" style="stroke:#2688D4;stroke-width:1.0416666666666667;" width="211.8056" x="243.75" y="17.7083"/><ellipse cx="330.3819" cy="34.7941" fill="#FFFFFF" rx="10.4167" ry="10.4167" style="stroke:#2D547A;stroke-width:1.0416666666666667;"/><path d="M330.8865,39.742 L329.0799,39.742 L329.0799,32.2062 L326.7687,32.2062 L326.7687,30.6274 L333.1977,30.6274 L333.1977,32.2062 L330.8865,32.2062 L330.8865,39.742 Z " fill="#FFFFFF"/><text fill="#000000" font-family="Verdana" font-size="11.4583" lengthAdjust="spacing" textLength="19.7917" x="355.3819" y="38.7609">city</text><line style="stroke:#2688D4;stroke-width:1.0416666666666667;" x1="244.7917" x2="454.5139" y1="51.8799" y2="51.8799"/><path d="M261.5017,64.0896 C260.184,64.0896 259.1146,65.1591 259.1146,66.4768 C259.1146,66.6296 259.1146,66.7823 259.1432,66.9256 L256.25,69.8188 L256.25,71.7285 L259.1146,71.7285 L259.1146,69.8188 L261.0243,69.8188 L261.0243,68.8639 L261.053,68.8353 C261.1962,68.8639 261.349,68.8639 261.5017,68.8639 C262.8194,68.8639 263.8889,67.7945 263.8889,66.4768 C263.8889,65.1591 262.8194,64.0896 261.5017,64.0896 M261.9792,65.0445 C262.5043,65.0445 262.934,65.4742 262.934,65.9993 C262.934,66.5245 262.5043,66.9542 261.9792,66.9542 C261.454,66.9542 261.0243,66.5245 261.0243,65.9993 C261.0243,65.4742 261.454,65.0445 261.9792,65.0445 " fill="#000000" style="stroke:;stroke-width:0.0;stroke-dasharray:;"/><text fill="#000000" font-family="Verdana" font-size="11.4583" font-weight="bold" lengthAdjust="spacing" textLength="12.5" x="269.0972" y="71.8908">id</text><text fill="#000000" font-family="Verdana" font-size="11.4583" lengthAdjust="spacing" textLength="36.4583" x="281.5972" y="71.8908">: UUID</text><path d="M259.1146,87.8445 C257.5295,87.8445 256.25,89.124 256.25,90.7091 C256.25,92.2942 257.5295,93.5737 259.1146,93.5737 C260.6997,93.5737 261.9792,92.2942 261.9792,90.7091 C261.9792,89.124 260.6997,87.8445 259.1146,87.8445 " fill="#008000" style="stroke:;stroke-width:0.0;stroke-dasharray:;"/><text fill="#000000" font-family="Verdana" font-size="11.4583" lengthAdjust="spacing" textLength="164.5833" x="269.0972" y="95.6457">name: CHARACTER VARYING</text><path d="M259.1146,111.5994 C257.5295,111.5994 256.25,112.8789 256.25,114.464 C256.25,116.049 257.5295,117.3286 259.1146,117.3286 C260.6997,117.3286 261.9792,116.049 261.9792,114.464 C261.9792,112.8789 260.6997,111.5994 259.1146,111.5994 " fill="#008000" style="stroke:;stroke-width:0.0;stroke-dasharray:;"/><text fill="#000000" font-family="Verdana" font-size="11.4583" lengthAdjust="spacing" textLength="175" x="269.0972" y="119.4005">country: CHARACTER VARYING</text><path d="M259.1146,135.3543 C257.5295,135.3543 256.25,136.6338 256.25,138.2189 C256.25,139.8039 257.5295,141.0834 259.1146,141.0834 C260.6997,141.0834 261.9792,139.8039 261.9792,138.2189 C261.9792,136.6338 260.6997,135.3543 259.1146,135.3543 " fill="#008000" style="stroke:;stroke-width:0.0;stroke-dasharray:;"/><text fill="#000000" font-family="Verdana" font-size="11.4583" lengthAdjust="spacing" textLength="114.5833" x="269.0972" y="143.1554">postCode: INTEGER</text><line style="stroke:#2688D4;stroke-width:1.0416666666666667;" x1="244.7917" x2="454.5139" y1="155.2327" y2="155.2327"/></g><!--link user to city--><g id="link_user_city"><path codeLine="34" d="M189.6667,90.625 C209.4688,90.625 214.2396,90.625 234.9688,90.625 " fill="none" id="user-city" style="stroke:#2688D4;stroke-width:3.125;"/><line style="stroke:#2688D4;stroke-width:3.125;" x1="189.6667" x2="181.3333" y1="90.625" y2="96.875"/><line style="stroke:#2688D4;stroke-width:3.125;" x1="189.6667" x2="181.3333" y1="90.625" y2="84.375"/><line style="stroke:#2688D4;stroke-width:3.125;" x1="189.6667" x2="181.3333" y1="90.625" y2="90.625"/><line style="stroke:#2688D4;stroke-width:3.125;" x1="191.75" x2="191.75" y1="94.7917" y2="86.4583"/><line style="stroke:#2688D4;stroke-width:3.125;" x1="239.1354" x2="239.1354" y1="86.4583" y2="94.7917"/><line style="stroke:#2688D4;stroke-width:3.125;" x1="236.0104" x2="236.0104" y1="86.4583" y2="94.7917"/><line style="stroke:#2688D4;stroke-width:3.125;" x1="234.9688" x2="243.3021" y1="90.625" y2="90.625"/><text fill="#0000FF" font-family="Verdana" font-size="12.5" lengthAdjust="spacing" textLength="33.3333" x="218.5729" y="88.9465">cityId</text></g><!--SRC=[ZL9TQzj047pNhzWGA37K149RWX42nNKIq-A0SGfvAYVTMZeitPczLMrH-xztfMkCceIIUzoPkPdzEECIQmIlhFRiB4PHXMi6Ta2cA1cq8SpPE1lvZR5RHQe6SetLkIEB19y7zSfOv7QBu8XBDm1ygRJR6Ll0MbKU1qWflZiop6XVONcbl8VV4SYxKVccw7sdhd84kz8mziWzAetq4g-wy5dL14xAJ2Ph66-TvK38Ab44aCZjGl7ywilrjVuK71t9l__MZr5qfd4jRSAMJAse_Rd1zc8_WZXBuhpZJlgFa_Y300diuyk-ciINMNBIhXsXAUnRsWR_BvLIKzjU5IG58LhHrAYD6ikk97RoB8NzISWggx3JeMN3BUmXZk5YzJ5CSWH94aM10usNlOxwmG-x1ADXD877n_bN4EXl4Z0-bVluXHrsy_3mVPOkEdZO8-JYEE_LyyLgTZTRYldjDx4ydamxoljDhQfxm-bzkaodA_dmHxfycY_kXgHSpe6fVPCte6sTbvlGE8ZNvUgdS3oCnuT320SJ6AufzFGywJy0]--></g></svg>